<svg width="126" height="22" viewBox="0 0 126 22" fill="none" xmlns="http://www.w3.org/2000/svg">
<rect width="126" height="22" fill="white"/>
<path d="M3.23137 16.976C4.33537 17.328 5.48737 17.504 6.68737 17.504C7.90337 17.504 8.98337 17.304 9.92737 16.904C10.8714 16.504 11.5994 15.944 12.1114 15.224C12.6394 14.504 12.9034 13.672 12.9034 12.728C12.9034 11.736 12.6234 10.944 12.0634 10.352C11.5194 9.76 10.8314 9.32 9.99937 9.032C9.16737 8.728 8.02337 8.4 6.56737 8.048C5.22337 7.728 4.22337 7.36 3.56737 6.944C2.92737 6.512 2.60737 5.872 2.60737 5.024C2.60737 4.032 2.97537 3.264 3.71137 2.72C4.44737 2.16 5.47937 1.88 6.80737 1.88C7.75137 1.88 8.55937 2.008 9.23137 2.264C9.90337 2.52 10.6314 2.968 11.4154 3.608C11.7034 3.784 11.9354 3.872 12.1114 3.872C12.2874 3.872 12.4394 3.792 12.5674 3.632C12.6954 3.456 12.7594 3.256 12.7594 3.032C12.7594 2.728 12.6314 2.448 12.3754 2.192C11.7194 1.552 10.9034 1.064 9.92737 0.727997C8.96737 0.375997 7.92737 0.199997 6.80737 0.199997C5.60737 0.199997 4.53537 0.407997 3.59137 0.823997C2.66337 1.224 1.93537 1.8 1.40737 2.552C0.895371 3.288 0.639371 4.136 0.639371 5.096C0.639371 6.104 0.895371 6.92 1.40737 7.544C1.93537 8.168 2.61537 8.648 3.44737 8.984C4.29537 9.32 5.37537 9.64 6.68737 9.944C7.66337 10.168 8.43937 10.384 9.01537 10.592C9.59137 10.8 10.0554 11.08 10.4074 11.432C10.7594 11.768 10.9354 12.216 10.9354 12.776C10.9354 13.752 10.5674 14.504 9.83137 15.032C9.09537 15.56 8.03937 15.824 6.66337 15.824C4.75937 15.824 3.06337 15.248 1.57537 14.096C1.33537 13.92 1.11137 13.832 0.903371 13.832C0.727371 13.832 0.575371 13.92 0.447371 14.096C0.319371 14.256 0.255371 14.448 0.255371 14.672C0.255371 15.008 0.375371 15.288 0.615371 15.512C1.27137 16.12 2.14337 16.608 3.23137 16.976Z" fill="black"/>
<path fill-rule="evenodd" clip-rule="evenodd" d="M16.1993 19.312C15.9232 19.312 15.6993 19.0881 15.6993 18.812C15.6993 18.6886 15.7441 18.5756 15.8182 18.4884C15.814 18.4445 15.8119 18.399 15.8119 18.352V8.224C15.8119 7.92 15.8999 7.688 16.0759 7.528C16.2679 7.352 16.5079 7.264 16.7959 7.264C17.0839 7.264 17.3159 7.352 17.4919 7.528C17.6679 7.688 17.7559 7.92 17.7559 8.224V18.312H41.8275V6.344C41.8275 6.056 41.9155 5.824 42.0915 5.648C42.2675 5.472 42.5075 5.384 42.8115 5.384C43.1155 5.384 43.3475 5.472 43.5075 5.648C43.6835 5.824 43.7715 6.056 43.7715 6.344V7.64C44.1235 6.904 44.6355 6.336 45.3075 5.936C45.9955 5.536 46.7955 5.336 47.7075 5.336C48.7315 5.336 49.6355 5.592 50.4195 6.104C51.2035 6.616 51.8115 7.336 52.2435 8.264C52.6755 9.176 52.8915 10.24 52.8915 11.456C52.8915 12.672 52.6755 13.736 52.2435 14.648C51.8115 15.544 51.2035 16.24 50.4195 16.736C49.6515 17.232 48.7475 17.48 47.7075 17.48C46.7955 17.48 45.9955 17.28 45.3075 16.88C44.6355 16.48 44.1235 15.912 43.7715 15.176V18.312H55.7962V1.232C55.7962 0.927998 55.8842 0.695998 56.0602 0.535997C56.2522 0.359997 56.4922 0.271997 56.7802 0.271997C57.0522 0.271997 57.2762 0.359997 57.4522 0.535997C57.6442 0.695998 57.7402 0.927998 57.7402 1.232V18.312H96.39V1.232C96.39 0.927998 96.478 0.695998 96.654 0.535997C96.846 0.359997 97.086 0.271997 97.374 0.271997C97.646 0.271997 97.87 0.359997 98.046 0.535997C98.238 0.695998 98.334 0.927998 98.334 1.232V18.312H115.699C115.938 18.312 116.138 18.4796 116.188 18.7036C116.238 18.7952 116.301 18.9137 116.359 19.0347C116.465 19.0698 116.508 19.0952 116.6 19.1481C116.647 19.1752 116.706 19.2095 116.793 19.256C117.353 19.544 117.905 19.776 118.449 19.952C118.993 20.128 119.641 20.216 120.393 20.216C121.529 20.216 122.385 19.912 122.961 19.304C123.537 18.712 123.825 17.84 123.825 16.688V14.624C123.489 15.376 122.969 15.952 122.265 16.352C121.577 16.752 120.761 16.952 119.817 16.952C118.793 16.952 117.881 16.712 117.081 16.232C116.297 15.752 115.681 15.072 115.233 14.192C114.801 13.312 114.585 12.296 114.585 11.144C114.585 9.992 114.801 8.976 115.233 8.096C115.681 7.216 116.297 6.536 117.081 6.056C117.881 5.576 118.793 5.336 119.817 5.336C120.745 5.336 121.553 5.536 122.241 5.936C122.929 6.336 123.449 6.904 123.801 7.64V6.344C123.801 6.056 123.881 5.824 124.041 5.648C124.217 5.472 124.457 5.384 124.761 5.384C125.065 5.384 125.305 5.472 125.481 5.648C125.657 5.824 125.745 6.056 125.745 6.344V16.52C125.745 18.264 125.297 19.576 124.401 20.456C123.505 21.352 122.177 21.8 120.417 21.8C118.705 21.8 117.281 21.464 116.145 20.792C115.594 20.4858 114.853 19.7402 114.79 19.312H43.7715V20.816C43.7715 21.104 43.6835 21.328 43.5075 21.488C43.3475 21.664 43.1155 21.752 42.8115 21.752C42.5075 21.752 42.2675 21.664 42.0915 21.488C41.9155 21.312 41.8275 21.088 41.8275 20.816V19.312H16.1993ZM49.9635 14.72C49.3395 15.488 48.4595 15.872 47.3235 15.872C46.1875 15.872 45.3075 15.488 44.6835 14.72C44.0755 13.936 43.7715 12.832 43.7715 11.408C43.7715 9.984 44.0755 8.888 44.6835 8.12C45.3075 7.352 46.1875 6.968 47.3235 6.968C48.4595 6.968 49.3395 7.368 49.9635 8.168C50.5875 8.952 50.8995 10.048 50.8995 11.456C50.8995 12.864 50.5875 13.952 49.9635 14.72ZM122.841 14.24C122.201 14.976 121.321 15.344 120.201 15.344C119.065 15.344 118.169 14.976 117.513 14.24C116.873 13.488 116.553 12.456 116.553 11.144C116.553 9.848 116.873 8.832 117.513 8.096C118.169 7.344 119.065 6.968 120.201 6.968C121.337 6.968 122.217 7.344 122.841 8.096C123.481 8.832 123.801 9.848 123.801 11.144C123.801 12.456 123.481 13.488 122.841 14.24Z" fill="black"/>
<path d="M15.8599 5.752C16.0999 5.976 16.4119 6.088 16.7959 6.088C17.1799 6.088 17.4919 5.976 17.7319 5.752C17.9719 5.528 18.0919 5.232 18.0919 4.864C18.0919 4.512 17.9719 4.224 17.7319 4C17.4919 3.776 17.1799 3.664 16.7959 3.664C16.4119 3.664 16.0999 3.776 15.8599 4C15.6199 4.224 15.4999 4.512 15.4999 4.864C15.4999 5.232 15.6199 5.528 15.8599 5.752Z" fill="black"/>
<path d="M34.398 5.336C36.99 5.336 38.286 6.88 38.286 9.968V16.472C38.286 16.776 38.198 17.016 38.022 17.192C37.846 17.352 37.614 17.432 37.326 17.432C37.038 17.432 36.798 17.352 36.606 17.192C36.43 17.016 36.342 16.776 36.342 16.472V10.016C36.342 8.944 36.15 8.168 35.766 7.688C35.382 7.208 34.782 6.968 33.966 6.968C32.99 6.968 32.222 7.296 31.662 7.952C31.102 8.608 30.822 9.496 30.822 10.616V16.472C30.822 16.776 30.726 17.016 30.534 17.192C30.358 17.352 30.126 17.432 29.838 17.432C29.55 17.432 29.318 17.352 29.142 17.192C28.966 17.016 28.878 16.776 28.878 16.472V10.016C28.878 8.944 28.686 8.168 28.302 7.688C27.918 7.208 27.31 6.968 26.478 6.968C25.518 6.968 24.75 7.296 24.174 7.952C23.614 8.608 23.334 9.496 23.334 10.616V16.472C23.334 16.776 23.246 17.016 23.07 17.192C22.894 17.352 22.662 17.432 22.374 17.432C22.086 17.432 21.846 17.352 21.654 17.192C21.478 17.016 21.39 16.776 21.39 16.472V6.344C21.39 6.056 21.478 5.824 21.654 5.648C21.846 5.472 22.086 5.384 22.374 5.384C22.646 5.384 22.87 5.472 23.046 5.648C23.222 5.808 23.31 6.032 23.31 6.32V7.472C23.662 6.784 24.15 6.256 24.774 5.888C25.398 5.52 26.118 5.336 26.934 5.336C28.758 5.336 29.95 6.104 30.51 7.64C30.846 6.936 31.358 6.376 32.046 5.96C32.734 5.544 33.518 5.336 34.398 5.336Z" fill="black"/>
<path fill-rule="evenodd" clip-rule="evenodd" d="M70.8784 14.816C70.7504 14.672 70.5984 14.6 70.4224 14.6C70.2784 14.6 69.9984 14.72 69.5824 14.96C69.0704 15.248 68.5904 15.48 68.1424 15.656C67.6944 15.816 67.1584 15.896 66.5344 15.896C64.0704 15.896 62.7664 14.52 62.6224 11.768H70.3504C70.6384 11.768 70.8464 11.696 70.9744 11.552C71.1024 11.408 71.1664 11.176 71.1664 10.856C71.1664 9.16 70.7184 7.816 69.8224 6.824C68.9264 5.832 67.7184 5.336 66.1984 5.336C65.1264 5.336 64.1664 5.592 63.3184 6.104C62.4864 6.616 61.8384 7.336 61.3744 8.264C60.9104 9.176 60.6784 10.232 60.6784 11.432C60.6784 13.32 61.1984 14.8 62.2384 15.872C63.2944 16.944 64.7264 17.48 66.5344 17.48C67.1424 17.48 67.7664 17.4 68.4064 17.24C69.0464 17.064 69.6544 16.808 70.2304 16.472C70.7904 16.136 71.0704 15.768 71.0704 15.368C71.0704 15.144 71.0064 14.96 70.8784 14.816ZM63.7504 7.808C64.3744 7.168 65.1984 6.848 66.2224 6.848C67.2304 6.848 68.0144 7.168 68.5744 7.808C69.1344 8.432 69.4304 9.336 69.4624 10.52H62.6704C62.7824 9.352 63.1424 8.448 63.7504 7.808Z" fill="black"/>
<path fill-rule="evenodd" clip-rule="evenodd" d="M90.1061 8.624C91.0821 8.88 91.8341 9.36 92.3621 10.064C92.9061 10.768 93.1781 11.648 93.1781 12.704C93.1781 14.192 92.6901 15.336 91.7141 16.136C90.7381 16.92 89.3541 17.312 87.5621 17.312H81.5141C81.2101 17.312 80.9621 17.224 80.7701 17.048C80.5941 16.872 80.5061 16.64 80.5061 16.352V1.352C80.5061 1.064 80.5941 0.831998 80.7701 0.655998C80.9621 0.479998 81.2101 0.391997 81.5141 0.391997H87.2981C89.0421 0.391997 90.3941 0.775998 91.3541 1.544C92.3141 2.312 92.7941 3.4 92.7941 4.808C92.7941 5.72 92.5541 6.504 92.0741 7.16C91.6101 7.816 90.9541 8.304 90.1061 8.624ZM82.4501 7.904H87.0101C88.2741 7.904 89.2261 7.648 89.8661 7.136C90.5221 6.624 90.8501 5.88 90.8501 4.904C90.8501 2.984 89.5701 2.024 87.0101 2.024H82.4501V7.904ZM87.3701 15.68C88.6981 15.68 89.6741 15.44 90.2981 14.96C90.9381 14.464 91.2581 13.696 91.2581 12.656C91.2581 10.576 89.9621 9.536 87.3701 9.536H82.4501V15.68H87.3701Z" fill="black"/>
<path fill-rule="evenodd" clip-rule="evenodd" d="M106.816 17.48C105.712 17.48 104.736 17.232 103.888 16.736C103.056 16.24 102.408 15.536 101.944 14.624C101.496 13.696 101.272 12.624 101.272 11.408C101.272 10.192 101.496 9.128 101.944 8.216C102.408 7.288 103.056 6.576 103.888 6.08C104.736 5.584 105.712 5.336 106.816 5.336C107.92 5.336 108.896 5.584 109.744 6.08C110.592 6.576 111.24 7.288 111.688 8.216C112.152 9.128 112.384 10.192 112.384 11.408C112.384 12.624 112.152 13.696 111.688 14.624C111.24 15.536 110.592 16.24 109.744 16.736C108.896 17.232 107.92 17.48 106.816 17.48ZM106.816 15.872C107.968 15.872 108.848 15.496 109.456 14.744C110.08 13.976 110.392 12.864 110.392 11.408C110.392 9.984 110.08 8.888 109.456 8.12C108.832 7.336 107.952 6.944 106.816 6.944C105.68 6.944 104.8 7.336 104.176 8.12C103.552 8.888 103.24 9.984 103.24 11.408C103.24 12.848 103.544 13.952 104.152 14.72C104.776 15.488 105.664 15.872 106.816 15.872Z" fill="black"/>
</svg>
